<svg id="Layer_1" data-name="Layer 1" xmlns="http://www.w3.org/2000/svg" viewBox="0 0 51.57 39.31"><defs><style>.cls-1{fill:#fff;}</style></defs><path class="cls-1" d="M127.31,116.39l15.93-7.72v1.82l-13.85,6.58,13.85,6.85v1.79l-15.93-7.9Z" transform="translate(-126.64 -103.77)"/><path class="cls-1" d="M146.12,127.25l10.11-23.48h1.83L148,127.25Z" transform="translate(-126.64 -103.77)"/><path class="cls-1" d="M175.87,118l-15.93,7.72v-1.82l13.85-6.58-13.85-6.85v-1.79l15.93,7.9Z" transform="translate(-126.64 -103.77)"/><path class="cls-1" d="M126.64,133.78h9.06v.55h-8v3.46h6.73v.55h-6.73v4h8.23v.55h-9.3Z" transform="translate(-126.64 -103.77)"/><path class="cls-1" d="M140.13,142.36h3.94v-8h-3.94v-.55h9v.55h-3.94v8h3.94v.55h-9Z" transform="translate(-126.64 -103.77)"/><path class="cls-1" d="M158,134.33H152.7v-.55h11.74v.55H159.1v8.58H158Z" transform="translate(-126.64 -103.77)"/><path class="cls-1" d="M167.21,138.33c0-2.9,2.66-4.71,6.58-4.71a7.12,7.12,0,0,1,4,1.09l-.65.42a5.85,5.85,0,0,0-3.34-.93c-3.36,0-5.46,1.59-5.46,4.12s2.1,4.18,5.39,4.18a6.53,6.53,0,0,0,3.85-1.12l.64.39a7.59,7.59,0,0,1-4.57,1.31C169.87,143.08,167.21,141.23,167.21,138.33Z" transform="translate(-126.64 -103.77)"/></svg>