<svg id="Layer_1" data-name="Layer 1" xmlns="http://www.w3.org/2000/svg" viewBox="0 0 57.37 48.43"><defs><style>.cls-1{fill:#32ff00;}</style></defs><path class="cls-1" d="M80,77.26l19.63-9.5V70L82.6,78.1l17.07,8.43v2.21L80,79Z" transform="translate(-80.04 -61.71)"/><path class="cls-1" d="M102,90.64l12.46-28.93h2.26L104.23,90.64Z" transform="translate(-80.04 -61.71)"/><path class="cls-1" d="M137.41,79.24l-19.63,9.5V86.5l17.06-8.1L117.78,70v-2.2l19.63,9.73Z" transform="translate(-80.04 -61.71)"/><path class="cls-1" d="M80.5,105.77c0-2.7,2.94-4.34,6.18-4.34,3.5,0,5.54,1.56,5.54,3.9a4,4,0,0,1-.1.85H81.87v-1.09h9l-.53.39c0-2-1.42-2.94-3.64-2.94s-4.18,1.16-4.18,3.23,2,3.24,4.73,3.24a8.8,8.8,0,0,0,3.69-.78l.75.92a11.08,11.08,0,0,1-4.69,1C83.39,110.14,80.5,108.54,80.5,105.77Z" transform="translate(-80.04 -61.71)"/><path class="cls-1" d="M101.62,102.78H96v-1.14h7.68v8.3h-2.07Zm-.82-4c0-.65.69-1.09,1.64-1.09s1.65.44,1.65,1.09-.7,1.1-1.65,1.1S100.8,99.47,100.8,98.8Z" transform="translate(-80.04 -61.71)"/><path class="cls-1" d="M113.86,106.71v-3.93h-3.44v-1.06l3.51-.08.28-2.67h1.72v2.67h5.93v1.14h-5.93v4c0,1.48.72,2.25,3.07,2.25a10.94,10.94,0,0,0,2.89-.38l.45,1.05a15.11,15.11,0,0,1-3.79.49C115,110.14,113.86,108.76,113.86,106.71Z" transform="translate(-80.04 -61.71)"/><path class="cls-1" d="M125.67,105.8c0-2.78,3.1-4.37,6.76-4.37a7.83,7.83,0,0,1,4.41,1.21l-1,.91a6.34,6.34,0,0,0-3.31-.94c-2.8,0-4.72,1.28-4.72,3.19s1.9,3.16,4.67,3.16a7.38,7.38,0,0,0,3.74-1l.92.92a9.29,9.29,0,0,1-4.81,1.3C128.52,110.14,125.67,108.55,125.67,105.8Z" transform="translate(-80.04 -61.71)"/></svg>