<svg id="Layer_1" data-name="Layer 1" xmlns="http://www.w3.org/2000/svg" viewBox="0 0 46.57 39.31"><defs><style>.cls-1{fill:#269b00;}</style></defs><path class="cls-1" d="M128.31,116.39l15.93-7.72v1.82l-13.85,6.58,13.85,6.85v1.79l-15.93-7.9Z" transform="translate(-128.31 -103.77)"/><path class="cls-1" d="M146.12,127.25l10.11-23.48h1.83L148,127.25Z" transform="translate(-128.31 -103.77)"/><path class="cls-1" d="M174.87,118l-15.93,7.72v-1.82l13.85-6.58-13.85-6.85v-1.79l15.93,7.9Z" transform="translate(-128.31 -103.77)"/><path d="M128.88,133.78h7.89v.55h-7v3.46h5.86v.55h-5.86v4H137v.55h-8.09Z" transform="translate(-128.31 -103.77)"/><path d="M140.62,142.36h3.43v-8h-3.43v-.55h7.8v.55H145v8h3.44v.55h-7.8Z" transform="translate(-128.31 -103.77)"/><path d="M156.19,134.33h-4.64v-.55h10.22v.55h-4.64v8.58h-.94Z" transform="translate(-128.31 -103.77)"/><path d="M164.18,138.33c0-2.9,2.31-4.71,5.73-4.71a5.57,5.57,0,0,1,3.46,1.09l-.56.42a4.61,4.61,0,0,0-2.9-.93c-2.93,0-4.75,1.59-4.75,4.12s1.82,4.18,4.69,4.18a5.14,5.14,0,0,0,3.34-1.12l.56.39a6,6,0,0,1-4,1.31C166.5,143.08,164.18,141.23,164.18,138.33Z" transform="translate(-128.31 -103.77)"/></svg>