<svg id="Layer_1" data-name="Layer 1" xmlns="http://www.w3.org/2000/svg" viewBox="0 0 112.77 95.2"><defs><style>.cls-1{fill:#91d300;}</style></defs><path class="cls-1" d="M52.34,68.89,90.92,50.21v4.41L57.38,70.53,90.92,87.12v4.34L52.34,72.33Z" transform="translate(-52.34 -38.33)"/><path class="cls-1" d="M95.46,95.19,120,38.33h4.43L99.9,95.19Z" transform="translate(-52.34 -38.33)"/><path class="cls-1" d="M165.11,72.77,126.53,91.46V87.05l33.54-15.92L126.53,54.54V50.21l38.58,19.13Z" transform="translate(-52.34 -38.33)"/><path class="cls-1" d="M53.25,124.93c0-5.3,5.78-8.52,12.15-8.52,6.86,0,10.88,3,10.88,7.65a7.79,7.79,0,0,1-.19,1.68H55.94v-2.15H73.68l-1,.77c0-3.86-2.8-5.77-7.16-5.77s-8.23,2.28-8.23,6.34c0,4.23,4,6.38,9.31,6.38a17.39,17.39,0,0,0,7.25-1.54l1.47,1.81a21.92,21.92,0,0,1-9.21,1.95C58.93,133.53,53.25,130.37,53.25,124.93Z" transform="translate(-52.34 -38.33)"/><path class="cls-1" d="M94.76,119.06h-11v-2.25h15.1v16.31H94.76Zm-1.62-7.82c0-1.28,1.37-2.15,3.24-2.15s3.23.87,3.23,2.15-1.37,2.15-3.23,2.15S93.14,112.55,93.14,111.24Z" transform="translate(-52.34 -38.33)"/><path class="cls-1" d="M118.82,126.78v-7.72h-6.76V117l6.91-.17.54-5.24h3.38v5.24h11.66v2.25H122.89v7.75c0,2.92,1.42,4.43,6,4.43a22,22,0,0,0,5.68-.74l.88,2.05a29.14,29.14,0,0,1-7.45,1C121.07,133.53,118.82,130.81,118.82,126.78Z" transform="translate(-52.34 -38.33)"/><path class="cls-1" d="M142.05,125c0-5.47,6.07-8.59,13.28-8.59a15.34,15.34,0,0,1,8.67,2.38l-2,1.78a12.53,12.53,0,0,0-6.51-1.85c-5.49,0-9.27,2.52-9.27,6.28s3.73,6.21,9.17,6.21a14.46,14.46,0,0,0,7.35-2.05l1.81,1.81a18.24,18.24,0,0,1-9.46,2.56C147.63,133.53,142.05,130.4,142.05,125Z" transform="translate(-52.34 -38.33)"/></svg>