<svg id="Layer_1" data-name="Layer 1" xmlns="http://www.w3.org/2000/svg" viewBox="0 0 57.37 48.43"><defs><style>.cls-1{fill:#fff;}</style></defs><path class="cls-1" d="M80,77.26l19.63-9.5V70L82.56,78.1l17.06,8.43v2.21L80,79Z" transform="translate(-79.99 -61.71)"/><path class="cls-1" d="M101.93,90.64,114.4,61.71h2.25L104.19,90.64Z" transform="translate(-79.99 -61.71)"/><path class="cls-1" d="M137.36,79.24l-19.63,9.5V86.5l17.07-8.1L117.73,70v-2.2l19.63,9.73Z" transform="translate(-79.99 -61.71)"/><path class="cls-1" d="M80.7,98.68h9.72v.68H81.85v4.26h7.22v.68H81.85v5h8.82v.68h-10Z" transform="translate(-79.99 -61.71)"/><path class="cls-1" d="M95.16,109.26h4.23v-9.9H95.16v-.68h9.61v.68h-4.23v9.9h4.23v.68H95.16Z" transform="translate(-79.99 -61.71)"/><path class="cls-1" d="M114.35,99.36h-5.72v-.68h12.59v.68H115.5v10.58h-1.15Z" transform="translate(-79.99 -61.71)"/><path class="cls-1" d="M124.19,104.28c0-3.56,2.85-5.8,7.06-5.8a7,7,0,0,1,4.27,1.34l-.69.52a5.73,5.73,0,0,0-3.58-1.14c-3.61,0-5.86,2-5.86,5.08s2.25,5.14,5.78,5.14a6.39,6.39,0,0,0,4.12-1.37l.69.48a7.39,7.39,0,0,1-4.9,1.61C127,110.14,124.19,107.86,124.19,104.28Z" transform="translate(-79.99 -61.71)"/></svg>